<?xml version="1.0" encoding="UTF-8"?>
<svg id="HW_Designs_1_xA0_Image" xmlns="http://www.w3.org/2000/svg" version="1.1" viewBox="0 0 13500 6480">
  <!-- Generator: Adobe Illustrator 30.4.0, SVG Export Plug-In . SVG Version: 2.1.4 Build 226)  -->
  <g>
    <path d="M7408.7,2607.5l-77.78,366.72-70.98,247.46-89.95-.47-149.81-410.12-108.37,304.29-42.09,107.69-86.92-.09-76.87-263.02-73.27-350.98,90.84-2.02c32.53,169.5,62.72,331.85,110.75,505.27l149.53-429.4,75.1-2.8,32.44,102.62,119.62,329.22c46.65-167.13,77.14-331.31,108.7-503.92l89.05-.44Z"/>
    <polygon points="6572.91 3219.57 6486.7 3223.46 6486.58 2939.92 6186.93 2939.12 6186.55 3222.32 6099.85 3221.48 6099.87 2607.32 6186.54 2607.67 6186.7 2864.61 6486.08 2864.78 6487.15 2607.43 6572.8 2607.34 6572.91 3219.57"/>
  </g>
  <circle cx="7539.78" cy="3313.93" r="54.61"/>
  <g>
    <path d="M6592.78,3502.27c37.72,147.07-1.71,308.3-142.93,378.41-108.43,49.22-228.63,41.37-349.9,24.08l-.14-597.99,125.37-15.14c79.25-9.57,157.16,4.7,228.41,39.6,70.19,34.38,119.5,94.27,139.19,171.03ZM6500.58,3698.24c18.4-67.67,16.65-133.53-3.03-196.9-52.04-133.19-175.15-141.81-311.03-130.71l.08,468.84c141.48,10.45,267.42-2.78,313.98-141.23Z"/>
    <path d="M7697.05,3984.47c108.74,34.28,260.74,40.99,270.57-63.84l4.81-51.25c-68.24,28.6-131.75,37.96-199.61,9.78-138.57-57.56-150.26-279.34-53.49-376.86,83.17-83.82,216.86-66.34,334.63-36.17l-.79,437.4c-.07,41.2-17.19,87.88-44.3,117.1-69.64,75.08-219.02,67.26-325.81,36.39l13.99-72.54ZM7825.18,3815.7c52.96,17.32,99.74,5.86,145.28-21.54l.58-268.56c-97.52-25.38-192.32-11.11-218.57,83.98-22.89,82.92-2.43,181.55,72.7,206.12Z"/>
    <path d="M6780.69,3801.91c47.03,62,156.83,54.37,240.76,28.07l9.79,70.3c-138.38,45.88-302.76,29.46-351.78-107.85-26.29-73.63-25.47-153.71,2.93-225.34,31.2-78.68,100.61-125.96,185.41-127.09,52.47-.7,105.39,11.46,141.79,52.05,22.98,25.63,44.62,64.29,47.01,98.95l7.81,112.94-315.92.55c3.12,38.19,10.99,69.46,32.19,97.41ZM6977.16,3635.83c-.22-61.28-23.03-92.23-62.39-117.51-47.43-17.88-101.48-5.95-133.9,36.03-18.03,23.34-27.27,53.71-29.55,82.45l225.84-.96Z"/>
    <path d="M8444.9,3666.36c-.06-29.56-4.19-60.54-10.42-85.81-18.34-74.4-107.15-73.1-195.96-57.55l-.32,389.28-83.05-.38-.08-448.35c141.57-28.82,305.31-54.77,359.25,82.13l14.22,109.33.21,257.69-83.35.6-.5-246.94Z"/>
    <path d="M8914.82,3795.85c-3.95,140.8-189.88,147.67-325.68,103.5l15.11-73.85c83.79,39.45,218.67,40.58,226.61-20.41,10.91-83.77-143.13-89.04-203.66-152.04-46.96-48.88-40.34-132.53,11.84-175.35,61.69-50.62,165.62-44,250.83-18.67l-14.28,71.13c-81.58-30.76-185.04-33.36-195.74,28.27-2.88,16.57,8.9,50.38,27.89,58.74l138.29,60.92c47.52,20.94,70.22,66.97,68.79,117.77Z"/>
    <path d="M7394.82,3883.36c-71.79,55.59-193.56,45.29-287.41,16.91l15.84-74.74c88.45,41.95,227.37,39.1,226.17-26.33-.24-13.04-9.3-43.36-21.11-49.01l-106.24-50.85c-24.94-11.94-53.96-24.98-74.18-43.53-35.49-32.57-41.49-85.75-24.77-130.48,35.68-95.42,174.71-99.59,284.4-67.23l-13.78,71.63c-68.09-23.79-156.66-34.21-186.21,7.17-22.51,31.53-2.97,72.98,31.22,87.38l118.87,50.05c46.66,19.65,74.1,61.02,75.12,111.21.7,34.03-7.12,73.98-37.91,97.82Z"/>
    <rect x="7498.7" y="3450.77" width="83.15" height="462.61"/>
  </g>
  <g>
    <path d="M4837.54,4162.57l-24.93-115.1-72.41-28.83c-10.15-4.04-33.9,8.29-41.33,14.92l-54.99,49.11c-18.35,16.39-37.87,23.05-59.17,10.12l-57.27-34.76c-9.76-5.92-15.39-23.89-13.53-36.48l13.79-93.77c1.94-13.2-11.84-36.21-22.05-42.67l-50.44-31.91-125.46,46.06-74.68-95.49,50.7-80.68c4.96-7.89,16.64-29.76,13.47-37.9l-29.13-74.78-141.34-7.36-31.54-86.31c-3.71-10.14-1.25-33.95,7.01-39.84l36.06-25.7c24.36-17.36,44.31-38.28,63.09-62.59l245.81-1.56c7.49-.05,22.38,12.26,24.22,19.65,19.54,78.37,71.06,175.96,125.54,230.03l48.44,48.07c65.97,65.48,180.78,113.24,275.95,129.16,132.92,22.24,266.63-7.53,380.54-77.3l63.51-47.59c27.4-20.53,47.94-45.75,68.53-72.88l44.63-58.83c45.12-59.47,76.34-134.21,76.27-211.88l-.15-178.39c-.06-73.69-57.77-127.63-26.02-155.24l63.96-55.61,116.59-101.75c11.62,5.85,25.07,19.75,29.69,29.5l29.58,62.44,107.59,1.19c5.82.06,20.02,12.14,21.58,17.39l32,108.16-106.31,86.44,7.03,93.89c52,44.74,121.83,47.98,115.84,81.87l-16.37,92.66c-2.11,11.93-15.68,26.43-27.84,28.62l-88.02,15.87c-10.36,1.87-27.07,18.52-30.15,27.58l-23.3,68.69,91.44,109.97-52.85,89.05c-4.21,7.09-18.53,21.4-25.46,25.94l-95.89-19.74c-16.13-3.32-39.66,3.17-48.22,13.94l-43.02,54.14,27.6,100.74c3.28,11.98,6.39,35.43-2.04,41.93l-90.28,69.58-103.42-70.85c-10.29-7.05-37.16.74-47.05,6.12l-52.15,28.33-15.45,140.16-119.12,35.36-64.58-98.58c-7.37-11.24-22.88-24.37-34.39-23.12l-79.39,8.62-27.04,48.11-39.35,70.86-96.38-10.36c-9.17-.99-25.79-16.43-27.94-26.39Z"/>
    <path d="M4680.72,2830.94c-35.45,24.68-60.72,55.57-86.33,87.58-56.4,70.49-93.12,153.24-111.39,242.48l-4.37,21.34c-.89,4.34-14.26,6.25-18.88,6.29l-221.96,2.2c-22.11.22-33.32-18.03-51.7-29.86l-67.07-43.16c-6.51-4.19-15.97-22.94-14.05-30.35l25.73-99.1c1.69-6.52,18.02-15.3,23.81-16.02l116.95-14.6,21.67-53.33c3.75-9.23,8.1-35.9,1.73-44.55l-49.57-67.26c-5.07-6.88-14.37-27.22-9.59-34.35l62.86-93.78,136.77,31.47,60.27-62.86-10.56-50.3-17.23-82.06,82.7-55.73c15.12-10.19,30.99-7.69,45.65,3.19l90.79,67.38,52.01-22.37c20.28-8.72,33.15-22.48,35.72-44.77l9.17-79.63c2.06-17.9,13.31-30.07,31.56-33.05l98.25-16.05,83.41,121.18,81.1-2.72,57.16-88.17c5.37-8.28,19.02-23.49,25.76-29.8l98.11,20.65c14.4,3.03,23.04,14.68,24.93,30l13.83,112.18,52.4,25.6c15.53,7.59,34.66,8.89,48.74-2.37l63.01-50.4c17.54-14.03,33.13-15.41,52.57-2.71l59.63,38.95c6.88,4.49,14.99,20.32,13.28,29.43l-23.5,125.49-40.57,32.02-85.68,83.6c-32.13-5.31-60.5-47.31-71.91-22.16-3.58,7.89,2.49,22.1,8.67,27.79l60.14,55.45c-3.31,10.38-23.14,27.43-32.68,24.41l-35.76-31.62c-97.97-86.63-300.18-134.89-436.29-101.78l-66.45,16.16c-47.84,11.64-92.26,37-132.54,65.04l-50.32,35.03Z"/>
    <path d="M3700.7,3194.05c53.75-21.7,74.13,30.53,104.01,30.15l77.06-1,15.62-2.24c3.81-.55-4-11.65-7.07-14.05l-62.39-48.86-136.13-110.84-27.9,17.46c-32.91,20.59-73.5,3.49-90.09-25.45-19.1-33.32-9.99-74.5,26.02-98.92,16.34-11.08,44.47-11.14,65.3-.95,16.27,7.96,29.83,34.87,36.81,56.83l203.17,165.78,86.61,62.07,652.86-.55,8.54-33.91,33.05-98.92c8.18-24.47,65.42-.14,91.05-20.81,8.02-6.46,18.74-30.22,12.85-38.46l-30.23-42.27c143.57-146.09,363.72-153.27,524.6-20.63l-60.62,63.15-43.07,38.34c-19.52,17.37-56.42-55.35-181.97-41.65-137.92,15.05-243.52,178.94-186.59,319.74l31.6,57.33c10.4,18.87,33.31,38.77,51.09,51.52,102.6,73.6,243.39,49.97,323.29-54.81,59.4-77.9,60.03-180.31,9.64-263.73-6.22-10.3-6.73-33.97,1.83-41.47l39.93-35.01,138.78-135.17c37.66-36.68,67.85-5.84,90.27-39.98,8.45-12.87,4.62-47.82-8.14-52.37l-50.91-18.14,62.49-61.2,164.24-161.51c9.53-9.37,30.71-10.92,40.2.16l95.9,111.96c5.48,6.39-1.8,25.69-7.78,31.14l-77.49,70.62-50.3,45.93-79.69,75.23-50.48,44.92c-3.57,3.18-13.3,8.91-17.3,10.14-11.8,3.64-33.33-38.77-52.11-20.9l-72.05,68.54c-13.41,12.76-22.61,24-29.9,40.96,68.65,114.72,67.84,248.82,7.34,364.71-36.61,70.13-94.94,134.49-163.64,169.65-86.31,44.17-180.09,59.49-273.63,31.71-133.73-39.71-247.22-136.61-276.76-281.17l-220.38-.38-384.33-1.5c-10.48-.04-30.8,9.93-38.55,17.72l-74.65,75.15-225.77.57c-11.81,21.13-28.81,45.5-48.26,53.66-32.46,13.62-62.05-2.85-78.48-26.78s-15.1-54.27,3.91-78.83c17.45-22.55,52.67-38.03,81.59-16.96,18.69,13.62,38.28,19.76,62.24,19.72l164.86-.31c11.62-.02,31.86-10.2,40.03-18.26l74.5-73.46,157.23,1.83,361.4-1.47,96.57-1.57c6.09-.1,16.26-5.04,18.24-9.73,2.64-6.25-10.57-21.37-17.34-21.25l-38.78.65-542.97-.45-246.5-2.72c-29.15-.32-39.33,53.13-94.87,38.73-23.77-6.16-46.04-31.96-43.38-60.87,2.15-23.38,19.39-49.96,35.76-56.57Z"/>
    <path d="M4012.48,3051.13l60.68,55.97c6.84,6.31,9.17,26.55,3.03,33.44-9.92,11.12-26.68,10.69-37.57,0l-132.3-129.72-.22-298.74c-23.01-13.87-40.95-32.48-44.65-51.14-5.52-27.87,4.03-57.31,24.55-74.16,35.1-28.81,82.84-12.77,104.29,20.55,25,38.82,2.91,83.85-35.94,106.82l-.63,253.83c-.06,23.07,9.88,38.07,25.54,52.51l33.21,30.63Z"/>
    <path d="M3884.52,3783.33c27.8,21.87,48.39,40.44,48.62,68.99.26,30.6-19.73,58.53-46.31,68.72-29.4,11.27-61.07,1.09-80.45-24.32-24.83-32.56-16.25-75.62,13.72-98.25,5.21-3.94,18.06-20.3,18-27.81l-1.05-123.26,77.41-74.25,134.09-126.3c7.29-6.87,29.55,2.15,32.62,10.04s.53,28.58-5.9,34.28l-51.33,45.51-105.08,100.14c-8.21,7.82-33.78,23.76-33.83,35.1l-.5,111.4Z"/>
  </g>
</svg>