<?xml version="1.0" encoding="utf-8"?>
<!-- Generator: Adobe Adobe Illustrator 29.2.0, SVG Export Plug-In . SVG Version: 6.00 Build 0)  -->
<svg version="1.1" id="HW_Designs_1_xA0_Image" xmlns="http://www.w3.org/2000/svg" xmlns:xlink="http://www.w3.org/1999/xlink"
	 x="0px" y="0px" width="3440px" height="1320px" viewBox="0 0 3440 1320" style="enable-background:new 0 0 3440 1320;"
	 xml:space="preserve">
<g>
	<path d="M2435.7,266.2l-47.2,222.5l-43.1,150.2l-54.6-0.3l-90.9-248.9l-65.8,184.6l-25.5,65.3l-52.7-0.1l-46.6-159.6l-44.5-213
		l55.1-1.2c19.7,102.9,38.1,201.4,67.2,306.6l90.7-260.6l45.6-1.7l19.7,62.3l72.6,199.8c28.3-101.4,46.8-201,66-305.8L2435.7,266.2
		L2435.7,266.2z"/>
	<polygon points="1928.5,637.6 1876.2,640 1876.2,467.9 1694.3,467.4 1694.1,639.3 1641.5,638.8 1641.5,266.1 1694.1,266.3 
		1694.2,422.2 1875.8,422.3 1876.5,266.1 1928.5,266.1 	"/>
</g>
<circle cx="2515.2" cy="694.9" r="33.1"/>
<g>
	<path d="M1940.6,809.1c22.9,89.2-1,187.1-86.7,229.6c-65.8,29.9-138.7,25.1-212.3,14.6l-0.1-362.9l76.1-9.2
		c48.1-5.8,95.4,2.9,138.6,24C1898.7,726.2,1928.6,762.6,1940.6,809.1L1940.6,809.1z M1884.6,928.1c11.2-41.1,10.1-81-1.8-119.5
		c-31.6-80.8-106.3-86.1-188.7-79.3l0,284.5C1780,1020.1,1856.4,1012.1,1884.6,928.1L1884.6,928.1z"/>
	<path d="M2610.7,1101.8c66,20.8,158.2,24.9,164.2-38.7l2.9-31.1c-41.4,17.4-79.9,23-121.1,5.9c-84.1-34.9-91.2-169.5-32.5-228.7
		c50.5-50.9,131.6-40.3,203.1-21.9l-0.5,265.4c0,25-10.4,53.3-26.9,71.1c-42.3,45.6-132.9,40.8-197.7,22.1L2610.7,1101.8
		L2610.7,1101.8z M2688.4,999.3c32.1,10.5,60.5,3.6,88.2-13.1l0.4-163c-59.2-15.4-116.7-6.7-132.6,51
		C2630.4,924.6,2642.8,984.4,2688.4,999.3L2688.4,999.3z"/>
	<path d="M2054.6,991c28.5,37.6,95.2,33,146.1,17l5.9,42.7c-84,27.8-183.7,17.9-213.5-65.4c-16-44.7-15.5-93.3,1.8-136.7
		c18.9-47.7,61.1-76.4,112.5-77.1c31.8-0.4,64,7,86,31.6c13.9,15.6,27.1,39,28.5,60l4.7,68.5l-191.7,0.3
		C2037,955,2041.8,974,2054.6,991L2054.6,991z M2173.8,890.2c-0.1-37.2-14-56-37.9-71.3c-28.8-10.8-61.6-3.6-81.3,21.9
		c-10.9,14.2-16.5,32.6-17.9,50L2173.8,890.2L2173.8,890.2z"/>
	<path d="M3064.5,908.7c0-17.9-2.5-36.7-6.3-52.1c-11.1-45.1-65-44.4-118.9-34.9l-0.2,236.2l-50.4-0.2l0-272.1
		c85.9-17.5,185.3-33.2,218,49.8l8.6,66.3l0.1,156.4l-50.6,0.4L3064.5,908.7z"/>
	<path d="M3349.6,987.3c-2.4,85.4-115.2,89.6-197.6,62.8l9.2-44.8c50.8,23.9,132.7,24.6,137.5-12.4c6.6-50.8-86.9-54-123.6-92.3
		c-28.5-29.7-24.5-80.4,7.2-106.4c37.4-30.7,100.5-26.7,152.2-11.3l-8.7,43.2c-49.5-18.7-112.3-20.2-118.8,17.2
		c-1.7,10.1,5.4,30.6,16.9,35.6l83.9,37C3336.7,928.5,3350.5,956.5,3349.6,987.3L3349.6,987.3z"/>
	<path d="M2427.3,1040.4c-43.6,33.7-117.5,27.5-174.4,10.3l9.6-45.4c53.7,25.5,138,23.7,137.2-16c-0.1-7.9-5.6-26.3-12.8-29.7
		l-64.5-30.9c-15.1-7.2-32.7-15.2-45-26.4c-21.5-19.8-25.2-52-15-79.2c21.7-57.9,106-60.4,172.6-40.8l-8.4,43.5
		c-41.3-14.4-95.1-20.8-113,4.4c-13.7,19.1-1.8,44.3,18.9,53l72.1,30.4c28.3,11.9,45,37,45.6,67.5
		C2450.7,1001.7,2446,1025.9,2427.3,1040.4L2427.3,1040.4z"/>
	<rect x="2490.3" y="777.9" width="50.5" height="280.7"/>
</g>
<g>
	<path d="M875.5,1209.8l-15.1-69.8l-43.9-17.5c-6.2-2.5-20.6,5-25.1,9.1l-33.4,29.8c-11.1,9.9-23,14-35.9,6.1l-34.8-21.1
		c-5.9-3.6-9.3-14.5-8.2-22.1l8.4-56.9c1.2-8-7.2-22-13.4-25.9l-30.6-19.4l-76.1,27.9L522,992.1l30.8-49c3-4.8,10.1-18.1,8.2-23
		l-17.7-45.4l-85.8-4.5l-19.1-52.4c-2.3-6.2-0.8-20.6,4.3-24.2l21.9-15.6c14.8-10.5,26.9-23.2,38.3-38l149.2-0.9
		c4.5,0,13.6,7.4,14.7,11.9c11.9,47.6,43.1,106.8,76.2,139.6l29.4,29.2c40,39.7,109.7,68.7,167.5,78.4
		c80.7,13.5,161.8-4.6,230.9-46.9l38.5-28.9c16.6-12.5,29.1-27.8,41.6-44.2l27.1-35.7c27.4-36.1,46.3-81.4,46.3-128.6l-0.1-108.2
		c0-44.7-35.1-77.4-15.8-94.2l38.8-33.7l70.7-61.7c7.1,3.5,15.2,12,18,17.9l17.9,37.9l65.3,0.7c3.5,0,12.1,7.4,13.1,10.6l19.4,65.6
		l-64.5,52.5l4.3,57c31.6,27.1,73.9,29.1,70.3,49.7l-9.9,56.2c-1.3,7.2-9.5,16-16.9,17.4l-53.4,9.6c-6.3,1.1-16.4,11.2-18.3,16.7
		l-14.1,41.7l55.5,66.7l-32.1,54c-2.6,4.3-11.2,13-15.4,15.7l-58.2-12c-9.8-2-24.1,1.9-29.3,8.5l-26.1,32.9l16.7,61.1
		c2,7.3,3.9,21.5-1.2,25.4l-54.8,42.2l-62.8-43c-6.2-4.3-22.5,0.4-28.6,3.7l-31.6,17.2l-9.4,85.1l-72.3,21.5l-39.2-59.8
		c-4.5-6.8-13.9-14.8-20.9-14l-48.2,5.2l-16.4,29.2l-23.9,43l-58.5-6.3C886.9,1225.3,876.8,1215.9,875.5,1209.8L875.5,1209.8z"/>
	<path d="M780.3,401.8c-21.5,15-36.8,33.7-52.4,53.1c-34.2,42.8-56.5,93-67.6,147.1l-2.7,12.9c-0.5,2.6-8.7,3.8-11.5,3.8l-134.7,1.3
		c-13.4,0.1-20.2-10.9-31.4-18.1l-40.7-26.2c-4-2.5-9.7-13.9-8.5-18.4l15.6-60.1c1-4,10.9-9.3,14.4-9.7l71-8.9l13.1-32.4
		c2.3-5.6,4.9-21.8,1-27l-30.1-40.8c-3.1-4.2-8.7-16.5-5.8-20.8l38.1-56.9l83,19.1l36.6-38.1l-6.4-30.5l-10.5-49.8l50.2-33.8
		c9.2-6.2,18.8-4.7,27.7,1.9l55.1,40.9l31.6-13.6c12.3-5.3,20.1-13.6,21.7-27.2l5.6-48.3c1.3-10.9,8.1-18.2,19.2-20.1l59.6-9.7
		l50.6,73.5l49.2-1.7l34.7-53.5c3.3-5,11.5-14.3,15.6-18.1l59.5,12.5c8.7,1.8,14,8.9,15.1,18.2l8.4,68.1l31.8,15.5
		c9.4,4.6,21,5.4,29.6-1.4l38.2-30.6c10.6-8.5,20.1-9.4,31.9-1.6l36.2,23.6c4.2,2.7,9.1,12.3,8.1,17.9l-14.3,76.1l-24.6,19.4
		l-52,50.7c-19.5-3.2-36.7-28.7-43.6-13.4c-2.2,4.8,1.5,13.4,5.3,16.9l36.5,33.6c-2,6.3-14,16.6-19.8,14.8l-21.7-19.2
		c-59.4-52.6-182.2-81.9-264.7-61.8l-40.3,9.8c-29,7.1-56,22.5-80.4,39.5L780.3,401.8L780.3,401.8z"/>
	<path d="M185.6,622.1c32.6-13.2,45,18.5,63.1,18.3l46.8-0.6l9.5-1.4c2.3-0.3-2.4-7.1-4.3-8.5l-37.9-29.6L180.2,533l-16.9,10.6
		c-20,12.5-44.6,2.1-54.7-15.4c-11.6-20.2-6.1-45.2,15.8-60c9.9-6.7,27-6.8,39.6-0.6c9.9,4.8,18.1,21.2,22.3,34.5l123.3,100.6
		l52.6,37.7l396.2-0.3l5.2-20.6l20.1-60c5-14.8,39.7-0.1,55.3-12.6c4.9-3.9,11.4-18.3,7.8-23.3l-18.3-25.7
		c87.1-88.6,220.7-93,318.3-12.5l-36.8,38.3l-26.1,23.3c-11.8,10.5-34.2-33.6-110.4-25.3c-83.7,9.1-147.8,108.6-113.2,194l19.2,34.8
		c6.3,11.5,20.2,23.5,31,31.3c62.3,44.7,147.7,30.3,196.2-33.3c36-47.3,36.4-109.4,5.8-160c-3.8-6.3-4.1-20.6,1.1-25.2l24.2-21.2
		l84.2-82c22.9-22.3,41.2-3.5,54.8-24.3c5.1-7.8,2.8-29-4.9-31.8l-30.9-11l37.9-37.1l99.7-98c5.8-5.7,18.6-6.6,24.4,0.1l58.2,67.9
		c3.3,3.9-1.1,15.6-4.7,18.9l-47,42.9l-30.5,27.9l-48.4,45.7l-30.6,27.3c-2.2,1.9-8.1,5.4-10.5,6.2c-7.2,2.2-20.2-23.5-31.6-12.7
		l-43.7,41.6c-8.1,7.7-13.7,14.6-18.1,24.9c41.7,69.6,41.2,151,4.5,221.3c-22.2,42.6-57.6,81.6-99.3,102.9
		c-52.4,26.8-109.3,36.1-166,19.2c-81.1-24.1-150-82.9-167.9-170.6l-133.7-0.2L400,719.9c-6.4,0-18.7,6-23.4,10.8l-45.3,45.6
		l-137,0.3c-7.2,12.8-17.5,27.6-29.3,32.6c-19.7,8.3-37.7-1.7-47.6-16.3c-10-14.5-9.2-32.9,2.4-47.8c10.6-13.7,32-23.1,49.5-10.3
		c11.3,8.3,23.2,12,37.8,12l100-0.2c7.1,0,19.3-6.2,24.3-11.1l45.2-44.6L472,692l219.3-0.9l58.6-1c3.7-0.1,9.9-3.1,11.1-5.9
		c1.6-3.8-6.4-13-10.5-12.9l-23.5,0.4l-329.5-0.3l-149.6-1.7c-17.7-0.2-23.9,32.2-57.6,23.5c-14.4-3.7-27.9-19.4-26.3-36.9
		C165.2,642.3,175.7,626.1,185.6,622.1L185.6,622.1z"/>
	<path d="M374.8,535.4l36.8,34c4.2,3.8,5.6,16.1,1.8,20.3c-6,6.7-16.2,6.5-22.8,0l-80.3-78.7l-0.1-181.3c-14-8.4-24.8-19.7-27.1-31
		c-3.3-16.9,2.4-34.8,14.9-45c21.3-17.5,50.3-7.7,63.3,12.5c15.2,23.6,1.8,50.9-21.8,64.8l-0.4,154c0,14,6,23.1,15.5,31.9
		L374.8,535.4L374.8,535.4z"/>
	<path d="M297.2,979.7c16.9,13.3,29.4,24.5,29.5,41.9c0.2,18.6-12,35.5-28.1,41.7c-17.8,6.8-37.1,0.7-48.8-14.8
		c-15.1-19.8-9.9-45.9,8.3-59.6c3.2-2.4,11-12.3,10.9-16.9l-0.6-74.8l47-45.1l81.4-76.6c4.4-4.2,17.9,1.3,19.8,6.1
		s0.3,17.3-3.6,20.8L381.8,830L318,890.8c-5,4.7-20.5,14.4-20.5,21.3L297.2,979.7L297.2,979.7z"/>
</g>
</svg>
